<?xml version="1.0" encoding="iso-8859-1"?>
<!-- Generator: Adobe Illustrator 16.0.0, SVG Export Plug-In . SVG Version: 6.00 Build 0)  -->
<!DOCTYPE svg PUBLIC "-//W3C//DTD SVG 1.1//EN" "http://www.w3.org/Graphics/SVG/1.1/DTD/svg11.dtd">
<svg version="1.1" id="Capa_1" xmlns="http://www.w3.org/2000/svg" xmlns:xlink="http://www.w3.org/1999/xlink" x="0px" y="0px"
	 width="306.248px" height="306.249px" viewBox="0 0 306.248 306.249" style="enable-background:new 0 0 306.248 306.249;"
	 xml:space="preserve">
<g>
	<g>
		<path d="M184.111,179.524h-61.969v61.609h61.969V179.524z M176.78,205.834c-0.779,1.115-2.424,1.48-4.287,0.969
			c-1.449-0.408-2.788-0.487-3.939-0.256c-1.06,0.207-2.064,0.621-2.978,1.205c-1.06,0.677-2.302,1.035-3.614,1.035
			c-1.272,0-2.539-0.347-3.659-0.998c-1.51-0.883-2.898-1.431-4.098-1.656v24.338c0.012,0.201,0.137,2.71-1.239,4.172
			c-0.624,0.67-1.458,1.022-2.433,1.022c-1.565,0-2.451-0.682-2.911-1.254c-1.254-1.56-0.792-3.909-0.737-4.165
			c0.131-0.585,0.685-0.95,1.279-0.822c0.579,0.128,0.941,0.688,0.822,1.272c-0.088,0.402-0.213,1.718,0.32,2.369
			c0.091,0.115,0.365,0.444,1.227,0.444c0.375,0,0.636-0.104,0.861-0.329c0.637-0.67,0.691-2.174,0.661-2.648l-0.006-24.405
			c-1.2,0.219-2.588,0.773-4.098,1.662c-2.274,1.327-5.194,1.291-7.271-0.037c-0.916-0.596-1.927-0.998-2.98-1.217
			c-1.16-0.226-2.487-0.141-3.946,0.256c-1.851,0.511-3.517,0.146-4.29-0.963c-0.387-0.542-0.743-1.485-0.231-2.959
			c1.732-4.908,6.217-9.146,13.35-12.586c2.731-1.322,6.473-2.053,10.543-2.053s7.818,0.73,10.544,2.053
			c7.13,3.452,11.611,7.678,13.354,12.586C177.535,204.343,177.176,205.299,176.78,205.834z"/>
		<path d="M85.248,180.602H23.282v61.604h61.966V180.602z M65.727,190.003l9.334,8.433h-6.396v27.561h-5.888v-27.408h-6.178
			L65.727,190.003z M42.624,190.003l9.335,8.433h-6.403v27.561h-5.879v-27.408h-6.18L42.624,190.003z M76.288,233.973H33.49v-6.096
			h42.798V233.973z"/>
		<path d="M282.976,178.452h-61.97v61.61h61.97V178.452z M240.668,203.637l-1.4-2.606c-3.124-5.815-4.153-12.203-4.195-12.471
			l-0.189-1.242h15.15l-2.71,3.678v3.788l-5.529,3.373L240.668,203.637z M268.642,188.524c-0.109,0.828-2.594,19.802-14.633,21.616
			v18.949h6.107v4.701h-16.525v-4.701h6.125v-19.011c-2.532-0.535-4.834-1.875-6.868-4l-0.39-0.408l1.261-6.174l5.767-3.52v-4.275
			l3.221-4.384H268.8L268.642,188.524z"/>
		<path d="M8.598,271.33H297.65c4.749,0,8.598-3.854,8.598-8.598V43.519c0-4.746-3.849-8.601-8.598-8.601H8.598
			C3.849,34.918,0,38.773,0,43.519v219.213C0,267.475,3.849,271.33,8.598,271.33z M89.547,246.504H18.986v-70.195h70.561V246.504z
			 M188.411,245.432H117.84v-70.207h70.571V245.432L188.411,245.432z M287.269,244.349h-70.562v-70.196h70.562V244.349z
			 M18.943,83.991h264.032v4.658H18.943V83.991z M234.572,121.421c-5.645-2.381-10.894-4.932-10.894-11.971
			c0-6.813,4.938-11.03,11.533-11.256v2.6c-1.705,0.587-3.19,1.842-3.19,3.681c0,2.195,1.205,3.541,6.552,5.599
			c7.934,3.042,9.725,7.258,9.725,11.387c0,6.945-5.779,11.479-12.416,11.609v-2.601c2.155-0.667,3.994-1.665,4.08-4.128
			C240.041,123.528,236.734,122.362,234.572,121.421z M233.854,130.476v2.6c-3.897-0.095-4.75-1.666-6.363-1.666
			c-1.438,0-1.304,1.486-2.424,1.486c-1.395,0-1.395-1.665-1.395-1.891v-8.656c0-0.935,0.177-2.201,1.443-2.201
			c0.889,0,1.522,0.718,1.656,1.486C227.405,125.239,229.914,129.672,233.854,130.476z M237.215,100.8V98.2
			c2.826,0.046,5.84,1.748,6.327,1.748c1.175,0,1.084-1.614,2.24-1.614c1.389,0,1.304,1.525,1.304,1.881v7.663
			c0,1.035-0.183,2.153-1.486,2.153c-1.071,0-1.474-0.849-1.607-1.748C243.505,104.974,240.717,101.567,237.215,100.8z
			 M206.276,121.421c-5.639-2.381-10.888-4.932-10.888-11.971c0-6.813,4.927-11.03,11.521-11.256v2.6
			c-1.698,0.587-3.178,1.842-3.178,3.681c0,2.195,1.199,3.541,6.539,5.599c7.935,3.042,9.725,7.258,9.725,11.387
			c0,6.945-5.778,11.479-12.416,11.609v-2.601c2.156-0.667,3.982-1.665,4.08-4.128C211.75,123.528,208.432,122.362,206.276,121.421z
			 M205.558,130.476v2.6c-3.896-0.095-4.749-1.666-6.357-1.666c-1.437,0-1.303,1.486-2.423,1.486c-1.395,0-1.395-1.665-1.395-1.891
			v-8.656c0-0.935,0.177-2.201,1.431-2.201c0.896,0,1.522,0.718,1.662,1.486C199.115,125.239,201.618,129.672,205.558,130.476z
			 M208.931,100.8V98.2c2.819,0.046,5.821,1.748,6.321,1.748c1.156,0,1.077-1.614,2.234-1.614c1.395,0,1.297,1.525,1.297,1.881
			v7.663c0,1.035-0.17,2.153-1.474,2.153c-1.071,0-1.474-0.849-1.619-1.748C215.203,104.974,212.414,101.567,208.931,100.8z
			 M184.343,109.903c0.22-0.758,0.5-1.477,1.432-1.477c1.395,0,1.175,1.611,1.175,1.963v9.691c0,0.362,0.22,1.97-1.175,1.97
			c-0.932,0-1.212-0.719-1.432-1.477c-0.396-1.702-1.248-3.456-3.142-3.949v-2.779C183.095,113.353,183.947,111.602,184.343,109.903
			z M181.201,101.476V98.87h10.005v9.104c0,0.222-0.043,1.078-1.395,1.078c-0.756,0-0.98-0.451-1.206-1.129
			C187.437,104.292,185.159,102.103,181.201,101.476z M188.831,123.306c0.311-0.676,0.578-1.397,1.395-1.397
			c1.425,0,1.291,1.346,1.291,1.528v8.966h-10.304v-2.594C184.843,129.358,187.619,126.889,188.831,123.306z M166.685,101.476
			c-0.585-0.183-0.986-0.588-0.986-1.218c0-1.297,1.474-1.389,1.668-1.389h11.832v33.533h-11.832c-0.183,0-1.668-0.088-1.668-1.392
			c0-0.63,0.401-1.029,0.986-1.202c1.571-0.5,1.522-0.768,1.522-2.427v-23.495C168.207,102.237,168.256,101.96,166.685,101.476z
			 M147.44,117.612v-2.649c2.426-0.219,2.731-1.705,2.731-3.897v-5.419c0-2.247-0.487-3.325-2.731-4.128V98.87h0.225
			c2.911,0,5.961-0.088,8.656,1.215c2.999,1.477,4.524,3.939,4.57,7.353c0.092,5.148-3.318,7.393-7.895,8.467v0.094
			c3.997,0.585,7.8,1.738,7.895,6.497v3.946c0,0.399-0.137,1.303,0.441,1.303c0.719,0,0.858-1.303,1.931-1.303
			c0.591,0,1.303,0.667,1.303,1.303c0,1.297-1.474,2.962-2.466,3.721c-1.522,1.248-3.136,1.616-5.063,1.616
			c-1.933,0-3.678-0.493-5.063-1.885c-1.565-1.613-1.796-3.583-1.796-5.69v-3.051C150.177,120.386,150.134,117.88,147.44,117.612z
			 M132.917,101.476c-0.578-0.183-0.983-0.588-0.983-1.218c0-1.297,1.477-1.389,1.659-1.389h11.829v28.513
			c0,1.659-0.04,1.927,1.525,2.427c0.588,0.173,0.987,0.578,0.987,1.202c0,1.303-1.477,1.392-1.66,1.392h-12.687
			c-0.177,0-1.659-0.088-1.659-1.392c0-0.63,0.405-1.029,0.983-1.202c1.571-0.5,1.528-0.768,1.528-2.427v-23.495
			C134.445,102.237,134.491,101.96,132.917,101.476z M100.103,101.476c-0.594-0.183-0.992-0.588-0.992-1.218
			c0-1.297,1.479-1.389,1.665-1.389h11.834v28.513c0,1.659-0.049,1.927,1.522,2.427c0.585,0.173,0.983,0.578,0.983,1.202
			c0,1.303-1.477,1.392-1.662,1.392H100.77c-0.18,0-1.666-0.088-1.666-1.392c0-0.63,0.405-1.029,0.993-1.202
			c1.565-0.5,1.513-0.768,1.513-2.427v-23.495C101.616,102.237,101.667,101.96,100.103,101.476z M114.619,119.582v-2.6
			c2.649-0.493,2.78-2.332,2.78-4.533v-6.765c0-2.016-0.399-3.854-2.78-4.213v-2.606c4.263,0,6.777,0.447,8.884,1.662
			c3.309,1.973,4.612,4.933,4.612,8.692c0,3.766-1.303,6.723-4.612,8.705C121.396,119.134,118.875,119.582,114.619,119.582z
			 M81.802,126.983l-11.609-23.306c-0.545-1.124-0.636-1.44-1.705-2.07c-0.542-0.313-0.895-0.487-0.895-1.206
			c0-1.613,1.738-1.525,2.904-1.525h10.358c1.12,0,2.874,0,2.874,1.525c0,1.206-1.392,0.856-1.392,2.016
			c0,0.542,0.18,0.81,0.399,1.261l11.88,24.152c0.399,0.813,0.579,1.307,1.434,1.754c0.621,0.311,1.121,0.578,1.121,1.392
			c0,1.428-1.751,1.428-2.78,1.428h-10.44c-1.078,0-3.096,0.226-3.096-1.428c0-1.124,1.525-1.081,1.525-2.159
			C82.38,128.012,82.112,127.702,81.802,126.983z M78.029,131.011c0,0.493-0.362,0.986-0.761,1.209
			c-0.448,0.225-1.434,0.177-1.891,0.177h-5.243c-0.846,0-2.238-0.046-2.238-1.206c0-0.858,0.584-1.12,1.254-1.388
			c1.571-0.636,2.287-1.434,3.185-2.826l4.077-6.64l1.391,2.779L77,124.459c-0.5,0.81-1.623,2.375-1.623,3.41
			C75.387,130.028,78.029,129.215,78.029,131.011z M86.901,101.567c-0.579-0.317-1.072-0.591-1.072-1.352
			c0-0.311,0.137-0.667,0.356-0.892c0.499-0.493,1.083-0.448,1.702-0.448h6.01c0.718,0,2.159,0.048,2.159,1.121
			c0,0.943-0.768,1.26-1.486,1.616c-1.477,0.858-2.326,1.839-3.23,3.23l-3.361,5.298l-1.346-2.737l0.673-1.297
			c0.494-0.81,1.029-1.52,1.029-2.469C88.341,102.554,87.806,102.012,86.901,101.567z M57.896,109.903
			c0.226-0.758,0.493-1.477,1.434-1.477c1.392,0,1.166,1.611,1.166,1.963v9.691c0,0.362,0.226,1.97-1.166,1.97
			c-0.941,0-1.208-0.719-1.434-1.477c-0.411-1.702-1.254-3.456-3.136-3.949v-2.779C56.642,113.353,57.491,111.602,57.896,109.903z
			 M54.76,101.476V98.87h9.995v9.104c0,0.222-0.052,1.078-1.391,1.078c-0.761,0-0.986-0.451-1.203-1.129
			C60.989,104.292,58.699,102.103,54.76,101.476z M62.377,123.306c0.32-0.676,0.587-1.397,1.391-1.397
			c1.434,0,1.303,1.346,1.303,1.528v8.966H54.766v-2.594C58.389,129.358,61.163,126.889,62.377,123.306z M40.231,101.476
			c-0.582-0.183-0.986-0.588-0.986-1.218c0-1.297,1.479-1.389,1.666-1.389h11.834v33.533H40.91c-0.18,0-1.666-0.088-1.666-1.392
			c0-0.63,0.405-1.029,0.986-1.202c1.571-0.5,1.522-0.768,1.522-2.427v-23.495C41.753,102.237,41.802,101.96,40.231,101.476z
			 M18.943,142.504h264.032v4.649H18.943V142.504z"/>
	</g>
</g>
<g>
</g>
<g>
</g>
<g>
</g>
<g>
</g>
<g>
</g>
<g>
</g>
<g>
</g>
<g>
</g>
<g>
</g>
<g>
</g>
<g>
</g>
<g>
</g>
<g>
</g>
<g>
</g>
<g>
</g>
</svg>
